<mxfile host="Electron" modified="2024-07-19T15:29:40.644Z" agent="Mozilla/5.0 (X11; Linux x86_64) AppleWebKit/537.36 (KHTML, like Gecko) draw.io/24.5.3 Chrome/124.0.6367.207 Electron/30.0.6 Safari/537.36" etag="VKQ8IILvEiHBk3AVSO2k" version="24.5.3" type="device">
  <diagram name="Page-1" id="pRJe2hCvlDjz7oQEiRqu">
    <mxGraphModel dx="834" dy="531" grid="1" gridSize="10" guides="1" tooltips="1" connect="1" arrows="1" fold="1" page="1" pageScale="1" pageWidth="850" pageHeight="1100" math="0" shadow="0">
      <root>
        <mxCell id="0" />
        <mxCell id="1" parent="0" />
        <mxCell id="gnvKBJhJmzgV0bvT2t6o-1" value="" style="ellipse;whiteSpace=wrap;html=1;aspect=fixed;" vertex="1" parent="1">
          <mxGeometry x="240" y="40" width="80" height="80" as="geometry" />
        </mxCell>
        <mxCell id="gnvKBJhJmzgV0bvT2t6o-8" value="" style="endArrow=classic;html=1;rounded=0;exitX=1;exitY=0.5;exitDx=0;exitDy=0;" edge="1" parent="1" source="gnvKBJhJmzgV0bvT2t6o-1">
          <mxGeometry width="50" height="50" relative="1" as="geometry">
            <mxPoint x="400" y="300" as="sourcePoint" />
            <mxPoint x="480" y="80" as="targetPoint" />
          </mxGeometry>
        </mxCell>
        <mxCell id="gnvKBJhJmzgV0bvT2t6o-9" value="" style="endArrow=classic;html=1;rounded=0;" edge="1" parent="1" target="gnvKBJhJmzgV0bvT2t6o-1">
          <mxGeometry width="50" height="50" relative="1" as="geometry">
            <mxPoint x="120" y="80" as="sourcePoint" />
            <mxPoint x="234" y="79" as="targetPoint" />
            <Array as="points" />
          </mxGeometry>
        </mxCell>
        <mxCell id="gnvKBJhJmzgV0bvT2t6o-10" value="" style="endArrow=classic;html=1;rounded=0;" edge="1" parent="1">
          <mxGeometry width="50" height="50" relative="1" as="geometry">
            <mxPoint x="320" y="440" as="sourcePoint" />
            <mxPoint x="320" y="240" as="targetPoint" />
          </mxGeometry>
        </mxCell>
        <mxCell id="gnvKBJhJmzgV0bvT2t6o-11" value="" style="endArrow=classic;html=1;rounded=0;" edge="1" parent="1">
          <mxGeometry width="50" height="50" relative="1" as="geometry">
            <mxPoint x="320" y="440" as="sourcePoint" />
            <mxPoint x="600" y="440" as="targetPoint" />
          </mxGeometry>
        </mxCell>
        <mxCell id="gnvKBJhJmzgV0bvT2t6o-12" value="" style="endArrow=classic;html=1;rounded=0;" edge="1" parent="1">
          <mxGeometry width="50" height="50" relative="1" as="geometry">
            <mxPoint x="380" y="440" as="sourcePoint" />
            <mxPoint x="530" y="260" as="targetPoint" />
            <Array as="points">
              <mxPoint x="480" y="320" />
            </Array>
          </mxGeometry>
        </mxCell>
        <mxCell id="gnvKBJhJmzgV0bvT2t6o-13" value="Simple LR" style="text;strokeColor=none;align=center;fillColor=none;html=1;verticalAlign=middle;whiteSpace=wrap;rounded=0;" vertex="1" parent="1">
          <mxGeometry x="390" y="260" width="60" height="30" as="geometry" />
        </mxCell>
        <mxCell id="gnvKBJhJmzgV0bvT2t6o-14" value="Neuron" style="text;strokeColor=none;align=center;fillColor=none;html=1;verticalAlign=middle;whiteSpace=wrap;rounded=0;" vertex="1" parent="1">
          <mxGeometry x="250" y="70" width="60" height="30" as="geometry" />
        </mxCell>
        <mxCell id="gnvKBJhJmzgV0bvT2t6o-15" value="ReLU&lt;div&gt;&lt;br&gt;&lt;/div&gt;" style="text;strokeColor=none;align=center;fillColor=none;html=1;verticalAlign=middle;whiteSpace=wrap;rounded=0;" vertex="1" parent="1">
          <mxGeometry x="540" y="220" width="60" height="30" as="geometry" />
        </mxCell>
        <mxCell id="gnvKBJhJmzgV0bvT2t6o-16" value="X input" style="text;strokeColor=none;align=center;fillColor=none;html=1;verticalAlign=middle;whiteSpace=wrap;rounded=0;" vertex="1" parent="1">
          <mxGeometry x="50" y="65" width="60" height="30" as="geometry" />
        </mxCell>
        <mxCell id="gnvKBJhJmzgV0bvT2t6o-17" value="Y output" style="text;strokeColor=none;align=center;fillColor=none;html=1;verticalAlign=middle;whiteSpace=wrap;rounded=0;" vertex="1" parent="1">
          <mxGeometry x="500" y="65" width="60" height="30" as="geometry" />
        </mxCell>
        <mxCell id="gnvKBJhJmzgV0bvT2t6o-18" value="Price" style="text;strokeColor=none;align=center;fillColor=none;html=1;verticalAlign=middle;whiteSpace=wrap;rounded=0;" vertex="1" parent="1">
          <mxGeometry x="250" y="300" width="60" height="30" as="geometry" />
        </mxCell>
        <mxCell id="gnvKBJhJmzgV0bvT2t6o-21" value="Car" style="text;strokeColor=none;align=center;fillColor=none;html=1;verticalAlign=middle;whiteSpace=wrap;rounded=0;" vertex="1" parent="1">
          <mxGeometry x="610" y="420" width="60" height="30" as="geometry" />
        </mxCell>
      </root>
    </mxGraphModel>
  </diagram>
</mxfile>
